# xmcd CD database file
# Copyright (C) 1997 Ti Kan
# 
# Track frame offsets:
#     182
#     18092
#     32012
#     49245
#     64692
#     80747
#     96167
#     116700
#     132155
#     150895
#     168655
# 
# Disc length: 2563 seconds
# 
# Revision: 1
# Processed by: cddbd v1.4b41PL1 Copyright (c) Steve Scherf et al.
# Submitted via: DiscPlay 4.0.4
# 
DISCID=860a010b
DTITLE=Maria Creuza - Da cor do pecado
DYEAR=1900
DGENRE=
TTITLE0=Faz parte do meu show
TTITLE1=Como   grande o meu amor por voc /N o quero ver voc  triste
TTITLE2=Como uma onda/Um certo algu m
TTITLE3=Marina/Nem Eu
TTITLE4=Rosa morena/Falsa baiana
TTITLE5=Eu n o existo sem voc /Eu sei que vou te amar/Se todos fossem iguais
TTITLE5=a voc 
TTITLE6=Simples carinho/Por causa de voc /Tortura de amor
TTITLE7=Da cor do pecado
TTITLE8=Fim de caso/Castigo
TTITLE9=Camisa amarela/Faceira
TTITLE10=Gente humilde/Folhas secas
EXTD=
EXTT0=
EXTT1=
EXTT2=
EXTT3=
EXTT4=
EXTT5=
EXTT6=
EXTT7=
EXTT8=
EXTT9=
EXTT10=
PLAYORDER=
